<svg width="12" height="14" viewBox="0 0 12 14" fill="none" xmlns="http://www.w3.org/2000/svg">
<path fill-rule="evenodd" clip-rule="evenodd" d="M12 11.9678C12 12.9977 11.1647 13.833 10.1348 13.833H1.86426C0.834481 13.8328 3.32296e-05 12.9976 0 11.9678V5.66602H12V11.9678ZM8.66602 0C8.94216 0 9.16602 0.223858 9.16602 0.5V1.49902H10.1348C11.1647 1.49903 11.9999 2.33439 12 3.36426V4.66602H0V3.36426C0.00014022 2.33453 0.834547 1.49925 1.86426 1.49902H2.83301V0.5C2.83301 0.223871 3.05688 2.19345e-05 3.33301 0C3.60915 0 3.83301 0.223858 3.83301 0.5V1.49902H8.16602V0.5C8.16602 0.22398 8.39004 0.000197992 8.66602 0Z" fill="black"/>
</svg>
