<svg width="10" height="12" viewBox="0 0 10 12" fill="none" xmlns="http://www.w3.org/2000/svg">
<path fill-rule="evenodd" clip-rule="evenodd" d="M6.8584 4C8.22523 4 9.33398 5.09616 9.33398 6.44824V6.56348C9.33391 7.14536 9.13309 7.70968 8.76562 8.16406L6.28613 11.2305C5.45586 12.2565 3.87813 12.2565 3.04785 11.2305L0.568359 8.16406C0.200899 7.70968 7.87973e-05 7.14536 0 6.56348V6.44824C0 5.09616 1.10875 4 2.47559 4C3.13182 4.0001 3.76155 4.25777 4.22559 4.7168L4.66699 5.1543L5.1084 4.7168C5.57244 4.25777 6.20216 4.0001 6.8584 4ZM4.66699 0C5.58747 5.96046e-08 6.33398 0.746518 6.33398 1.66699C6.33381 2.58732 5.58736 3.33301 4.66699 3.33301C3.74663 3.33301 3.00018 2.58732 3 1.66699C3 0.746518 3.74652 0 4.66699 0Z" fill="black"/>
</svg>
