<svg width="16" height="16" viewBox="0 0 16 16" fill="none" xmlns="http://www.w3.org/2000/svg">
<path d="M5.60742 0.727392C6.88352 -0.242411 8.71713 -0.242517 9.99316 0.727392L14.3262 4.02134C15.1323 4.63411 15.5996 5.55167 15.5996 6.52036V12.7733C15.5996 14.5552 14.0474 15.9999 12.1328 15.9999H3.4668C1.55222 15.9999 0 14.5552 0 12.7733V6.52036C0 5.55174 0.467462 4.63411 1.27344 4.02134L5.60742 0.727392ZM4.04785 6.93149C3.88726 6.63521 3.49681 6.51477 3.17578 6.66294C2.85477 6.81116 2.72522 7.17225 2.88574 7.4686L4.70996 10.8368C5.26889 11.8686 6.86393 11.8686 7.42285 10.8368L8.47266 8.89927C8.55249 8.75188 8.78048 8.75191 8.86035 8.89927L10.2148 11.4002H9.5332C9.17428 11.4003 8.88379 11.6685 8.88379 11.9999C8.8838 12.3312 9.17429 12.5994 9.5332 12.5995H11.2666C11.5127 12.5995 11.7375 12.4715 11.8477 12.2684L12.7148 10.6678C12.8751 10.3715 12.7448 10.0113 12.4238 9.86313C12.1028 9.71506 11.7123 9.83536 11.5518 10.1317L11.2666 10.6581L10.0234 8.36216C9.46448 7.33073 7.86968 7.33091 7.31055 8.36216L6.26074 10.3006C6.18091 10.4479 5.95299 10.4478 5.87305 10.3006L4.04785 6.93149Z" fill="#131313"/>
</svg>
