<svg preserveAspectRatio="none" width="100%" height="100%" overflow="visible" style="display: block;" viewBox="0 0 16 16" fill="none" xmlns="http://www.w3.org/2000/svg">
<g id="Group 2">
<path id="vector (Stroke)" d="M14.9091 8C14.9091 4.18421 11.8158 1.09091 8 1.09091C4.18421 1.09091 1.09091 4.18421 1.09091 8C1.09091 11.8158 4.18421 14.9091 8 14.9091V16C3.58172 16 0 12.4183 0 8C0 3.58172 3.58172 0 8 0C12.4183 0 16 3.58172 16 8C16 12.4183 12.4183 16 8 16V14.9091C11.8158 14.9091 14.9091 11.8158 14.9091 8Z" fill="var(--fill-0, #0CE89B)"/>
<path id="vector (Stroke)_2" d="M7.09091 10.9091L7.09091 8C7.09091 7.49792 7.49792 7.09091 8 7.09091C8.50208 7.09091 8.90909 7.49792 8.90909 8L8.90909 10.9091C8.90909 11.4112 8.50208 11.8182 8 11.8182C7.49792 11.8182 7.09091 11.4112 7.09091 10.9091Z" fill="var(--fill-0, #0CE89B)"/>
<path id="vector" d="M8.72727 5.09091C8.72727 5.49257 8.40166 5.81818 8 5.81818C7.59834 5.81818 7.27273 5.49257 7.27273 5.09091C7.27273 4.68925 7.59834 4.36364 8 4.36364C8.40166 4.36364 8.72727 4.68925 8.72727 5.09091Z" fill="var(--fill-0, #0CE89B)"/>
<path id="vector (Stroke)_3" d="M8.36364 5.09091C8.36364 4.89008 8.20083 4.72727 8 4.72727C7.79917 4.72727 7.63636 4.89008 7.63636 5.09091C7.63636 5.29174 7.79917 5.45455 8 5.45455C8.20083 5.45455 8.36364 5.29174 8.36364 5.09091ZM9.09091 5.09091C9.09091 5.6934 8.60249 6.18182 8 6.18182C7.39751 6.18182 6.90909 5.6934 6.90909 5.09091C6.90909 4.48842 7.39751 4 8 4C8.60249 4 9.09091 4.48842 9.09091 5.09091Z" fill="var(--fill-0, #0CE89B)"/>
</g>
</svg>
