<svg width="11" height="11" viewBox="0 0 11 11" fill="none" xmlns="http://www.w3.org/2000/svg">
<path fill-rule="evenodd" clip-rule="evenodd" d="M2.4998 3.44713C2.77579 3.44713 2.99956 3.67119 2.9998 3.94713V9.39537C3.03089 9.372 3.06135 9.34652 3.08964 9.31822L4.14628 8.2606C4.34147 8.06542 4.65804 8.06556 4.85332 8.2606C5.04858 8.45587 5.04858 8.77237 4.85332 8.96764L3.79667 10.0253C3.08078 10.7411 1.91987 10.741 1.2039 10.0253L0.146284 8.96764C-0.0487214 8.77239 -0.0488011 8.4558 0.146284 8.2606C0.341472 8.06542 0.658035 8.06556 0.853315 8.2606L1.91093 9.31822C1.93911 9.34638 1.96885 9.37209 1.9998 9.39537V3.94713C2.00004 3.6713 2.22395 3.4473 2.4998 3.44713ZM6.53691 0.536971C7.25287 -0.17899 8.41372 -0.178991 9.12968 0.536971L10.1873 1.59361C10.3824 1.78876 10.3822 2.10535 10.1873 2.30064C9.99204 2.4959 9.67553 2.4959 9.48027 2.30064L8.42265 1.244C8.39434 1.21569 8.36489 1.18926 8.33378 1.16588V6.61412C8.33378 6.89015 8.10978 7.11394 7.83378 7.11412C7.55764 7.11412 7.33378 6.89026 7.33378 6.61412V1.16588C7.30268 1.18926 7.27225 1.21569 7.24394 1.244L6.1873 2.30064C5.99204 2.4959 5.67553 2.4959 5.48027 2.30064C5.28503 2.10538 5.28501 1.78887 5.48027 1.59361L6.53691 0.536971Z" fill="black"/>
</svg>
