<svg width="16" height="16" viewBox="0 0 16 16" fill="none" xmlns="http://www.w3.org/2000/svg">
<path fill-rule="evenodd" clip-rule="evenodd" d="M5.66747 0.200841C5.93747 -0.066947 6.37522 -0.066947 6.64522 0.200841L7.18521 0.736418C7.63521 1.18273 8.3648 1.18273 8.81479 0.736417L9.35479 0.200841C9.62479 -0.066947 10.0625 -0.066947 10.3325 0.200841C10.6025 0.468629 10.6025 0.902799 10.3325 1.17059L9.79254 1.70616C9.47519 2.02092 9.09463 2.23477 8.69139 2.34773V6.81239L12.5897 4.58011C12.4867 4.17723 12.4832 3.74339 12.5993 3.31338L12.797 2.58177C12.8958 2.21597 13.2749 1.99888 13.6437 2.0969C14.0126 2.19492 14.2314 2.57092 14.1326 2.93672L13.935 3.66833C13.7702 4.27801 14.135 4.90468 14.7497 5.06804L15.4874 5.26408C15.8562 5.36209 16.0751 5.7381 15.9763 6.1039C15.8774 6.46971 15.4983 6.68679 15.1295 6.58878L14.3919 6.39274C13.9584 6.27754 13.5814 6.05762 13.2812 5.76777L9.38292 8L13.2812 10.2322C13.5814 9.94238 13.9584 9.72246 14.3919 9.60726L15.1295 9.41122C15.4983 9.31321 15.8774 9.53029 15.9763 9.8961C16.0751 10.2619 15.8562 10.6379 15.4874 10.7359L14.7497 10.932C14.135 11.0953 13.7702 11.722 13.935 12.3317L14.1326 13.0633C14.2314 13.4291 14.0126 13.8051 13.6437 13.9031C13.2749 14.0011 12.8958 13.784 12.797 13.4182L12.5993 12.6866C12.4832 12.2566 12.4867 11.8228 12.5897 11.4199L8.69139 9.1876V13.6523C9.09463 13.7652 9.47519 13.9791 9.79254 14.2938L10.3325 14.8294C10.6025 15.0972 10.6025 15.5314 10.3325 15.7992C10.0625 16.0669 9.62479 16.0669 9.35479 15.7992L8.81479 15.2636C8.3648 14.8173 7.63521 14.8173 7.18521 15.2636L6.64522 15.7992C6.37522 16.0669 5.93747 16.0669 5.66747 15.7992C5.39747 15.5314 5.39747 15.0972 5.66747 14.8294L6.20746 14.2938C6.52482 13.9791 6.90539 13.7652 7.30865 13.6523V9.18778L3.41032 11.4201C3.51328 11.8229 3.51682 12.2566 3.40067 12.6866L3.20302 13.4182C3.10419 13.784 2.72509 14.0011 2.35626 13.9031C1.98744 13.805 1.76856 13.429 1.86739 13.0632L2.06504 12.3316C2.22975 11.722 1.86496 11.0953 1.25025 10.9319L0.512604 10.7359C0.14378 10.6379 -0.0750965 10.2619 0.0237295 9.89606C0.122556 9.53025 0.50166 9.31317 0.870484 9.41118L1.60813 9.60722C2.04168 9.72244 2.41873 9.94242 2.719 10.2323L6.61743 8L2.719 5.76766C2.41873 6.05758 2.04169 6.27756 1.60814 6.39278L0.870489 6.58882C0.501666 6.68683 0.122561 6.46975 0.0237348 6.10394C-0.0750912 5.73814 0.143785 5.36213 0.512609 5.26412L1.25026 5.06808C1.86496 4.90472 2.22976 4.27805 2.06505 3.66837L1.86739 2.93676C1.76857 2.57096 1.98744 2.19496 2.35627 2.09694C2.72509 1.99892 3.1042 2.21601 3.20302 2.58181L3.40067 3.31342C3.51682 3.74335 3.51329 4.17712 3.41032 4.57994L7.30865 6.81222V2.34774C6.90539 2.23479 6.52482 2.02093 6.20746 1.70616L5.66747 1.17059C5.39747 0.902799 5.39747 0.468629 5.66747 0.200841Z" fill="#131313"/>
</svg>
