<svg width="12" height="14" viewBox="0 0 12 14" fill="none" xmlns="http://www.w3.org/2000/svg">
<path fill-rule="evenodd" clip-rule="evenodd" d="M9.16634 0.5C9.16634 0.223858 8.94248 0 8.66634 0C8.3902 0 8.16634 0.223858 8.16634 0.5V1.5H3.83301V0.5C3.83301 0.223858 3.60915 0 3.33301 0C3.05687 0 2.83301 0.223858 2.83301 0.5V1.5H2.66667C1.19391 1.5 0 2.69391 0 4.16667V11.1667C0 12.6394 1.19391 13.8333 2.66667 13.8333H9.33333C10.8061 13.8333 12 12.6394 12 11.1667V4.16667C12 2.69391 10.8061 1.5 9.33333 1.5H9.16634V0.5ZM3.33333 4.66667C3.05719 4.66667 2.83333 4.89052 2.83333 5.16667C2.83333 5.44281 3.05719 5.66667 3.33333 5.66667H6C6.27614 5.66667 6.5 5.44281 6.5 5.16667C6.5 4.89052 6.27614 4.66667 6 4.66667H3.33333ZM2.83333 7.83333C2.83333 7.55719 3.05719 7.33333 3.33333 7.33333H8.66667C8.94281 7.33333 9.16667 7.55719 9.16667 7.83333C9.16667 8.10948 8.94281 8.33333 8.66667 8.33333H3.33333C3.05719 8.33333 2.83333 8.10948 2.83333 7.83333ZM3.33333 10C3.05719 10 2.83333 10.2239 2.83333 10.5C2.83333 10.7761 3.05719 11 3.33333 11H8.66667C8.94281 11 9.16667 10.7761 9.16667 10.5C9.16667 10.2239 8.94281 10 8.66667 10H3.33333Z" fill="black"/>
</svg>
