<svg width="8" height="14" viewBox="0 0 8 14" fill="none" xmlns="http://www.w3.org/2000/svg">
<path d="M6 1.83398C7.10457 1.83398 8 2.72941 8 3.83398V11.834C7.99982 12.9384 7.10446 13.834 6 13.834H2C0.895539 13.834 0.000176022 12.9384 0 11.834V3.83398C0 2.72941 0.895431 1.83398 2 1.83398H6ZM5.30273 4.91602C5.40426 4.59066 5.01431 4.35173 4.80273 4.60938L2.67871 7.20215L2.07324 7.94141C1.9072 8.14461 2.04229 8.46191 2.29492 8.46191H3.00391C3.20446 8.46224 3.34568 8.67265 3.28223 8.87598L2.69727 10.751C2.59571 11.0764 2.98572 11.3156 3.19727 11.0576L5.92676 7.72656C6.0932 7.52337 5.95784 7.20508 5.70508 7.20508H4.99609C4.79566 7.20475 4.6546 6.99521 4.71777 6.79199L5.30273 4.91602ZM5.33301 0C5.60904 0 5.83283 0.224007 5.83301 0.5C5.83301 0.776142 5.60915 1 5.33301 1H2.66699C2.39085 1 2.16699 0.776142 2.16699 0.5C2.16717 0.224007 2.39096 0 2.66699 0H5.33301Z" fill="black"/>
</svg>
