<svg width="11" height="16" viewBox="0 0 11 16" fill="none" xmlns="http://www.w3.org/2000/svg">
<path d="M8.02441 2.12012C9.12868 2.12035 10.0243 3.01583 10.0244 4.12012V14C10.0242 15.1043 9.12866 15.9998 8.02441 16H2C0.895552 16 0.000196905 15.1044 0 14V4.12012C0.000158341 3.01568 0.895528 2.12012 2 2.12012H8.02441ZM5.01172 5.99707C4.59771 5.9972 4.26188 6.33307 4.26172 6.74707V8.30957H2.50586C2.09197 8.30978 1.75608 8.64568 1.75586 9.05957C1.75586 9.47365 2.09183 9.80936 2.50586 9.80957H4.26172V11.374C4.26221 11.7877 4.59792 12.1239 5.01172 12.124C5.42563 12.124 5.76123 11.7878 5.76172 11.374V9.80957H7.51758C7.93179 9.80957 8.26758 9.47378 8.26758 9.05957C8.26735 8.64555 7.93165 8.30957 7.51758 8.30957H5.76172V6.74707C5.76156 6.33299 5.42583 5.99707 5.01172 5.99707ZM6.68262 0C7.02855 0 7.30946 0.258818 7.30957 0.578125C7.30957 0.897519 7.02862 1.15625 6.68262 1.15625H3.3418C2.99579 1.15625 2.71484 0.897519 2.71484 0.578125C2.71495 0.258818 2.99586 0 3.3418 0H6.68262Z" fill="#131313"/>
</svg>
