<svg width="14" height="14" viewBox="0 0 14 14" fill="none" xmlns="http://www.w3.org/2000/svg">
<path d="M1.68164 3.6112C1.2049 3.89949 0.783269 4.20031 0.481433 4.42853C0.17025 4.66383 0 5.03497 0 5.42509V11.8714C0 12.4403 0.685267 12.7703 1.15751 12.4529C1.96383 11.9111 3.05913 11.2958 4 11.1905C5.1061 11.0667 5.88638 11.6603 6.66667 12.2538C7.44695 12.8474 8.22723 13.441 9.33333 13.3172C10.5782 13.1779 12.0934 12.1458 12.8519 11.5722C13.1631 11.337 13.3333 10.9658 13.3333 10.5757V4.12941C13.3333 3.56044 12.6481 3.2305 12.1758 3.54785C12.0158 3.65538 11.8444 3.7658 11.6651 3.87455C11.6661 3.91636 11.6667 3.9583 11.6667 4.00036C11.6667 4.17536 11.6576 4.34859 11.64 4.51956C11.5842 5.05885 11.4426 5.57342 11.2289 6.04868C10.4476 7.78679 8.69994 9.00036 6.66667 9.00036C4.11989 9.00036 2.01919 7.09717 1.70667 4.63499C1.68024 4.42674 1.66667 4.21489 1.66667 4.00036C1.66667 3.86953 1.67171 3.73974 1.68164 3.6112Z" fill="black"/>
<path d="M6.6665 0C8.87553 0 10.6663 1.79101 10.6665 4C10.6665 4.14059 10.6592 4.28014 10.645 4.41699C10.6004 4.84822 10.4875 5.25919 10.3169 5.63867C9.69105 7.0309 8.29189 8 6.6665 8C4.6297 8 2.94864 6.47772 2.69873 4.50879C2.6776 4.34227 2.6665 4.17226 2.6665 4C2.66653 3.66734 2.70713 3.34416 2.78369 3.03516C3.21558 1.29239 4.79022 5.47148e-08 6.6665 0ZM8.33838 2.7666C8.45685 2.49018 8.17731 2.21009 7.90088 2.32812L4.80615 3.65527C4.52446 3.776 4.54086 4.18036 4.83154 4.27734L5.84131 4.61426C5.94084 4.64744 6.01907 4.72566 6.05225 4.8252L6.38916 5.83496C6.48608 6.12573 6.89145 6.14302 7.01221 5.86133L8.33838 2.7666Z" fill="black"/>
</svg>
