<svg width="11" height="14" viewBox="0 0 11 14" fill="none" xmlns="http://www.w3.org/2000/svg">
<path fill-rule="evenodd" clip-rule="evenodd" d="M7.55786 3.16697C8.43727 3.65389 9.12404 4.46697 9.43872 5.47361L10.2727 8.1406C11.0775 10.7163 9.15287 13.334 6.45435 13.334H4.00318C1.30464 13.334 -0.620033 10.7163 0.184817 8.1406L1.01783 5.47361C1.33247 4.46685 2.02018 3.65393 2.89966 3.16697H7.55786ZM5.56177 5.24998C4.37002 5.25011 3.33761 5.92729 2.82447 6.91697H2.56177C2.14779 6.91715 1.81189 7.25297 1.81177 7.66697C1.81189 7.95911 1.98098 8.20927 2.22486 8.33298C1.98072 8.45663 1.81185 8.70762 1.81177 8.99998C1.81177 9.41408 2.14771 9.74979 2.56177 9.74998H2.82544C3.33869 10.7393 4.37027 11.4168 5.56177 11.417C6.4243 11.417 7.20517 11.0613 7.76392 10.4912C8.05383 10.1953 8.04902 9.72055 7.75318 9.43064C7.4573 9.1411 6.98242 9.14566 6.69263 9.44138C6.40439 9.73547 6.0049 9.91697 5.56177 9.91697C5.30866 9.91691 5.06984 9.85563 4.85767 9.74998H5.22876C5.64283 9.7498 5.97876 9.41408 5.97876 8.99998C5.97868 8.70765 5.80977 8.45665 5.56568 8.33298C5.8096 8.20929 5.97864 7.95915 5.97876 7.66697C5.97864 7.25297 5.64275 6.91715 5.22876 6.91697H4.85669C5.06909 6.81103 5.3083 6.75003 5.56177 6.74998C6.00482 6.74998 6.4044 6.93157 6.69263 7.22556C6.98244 7.52121 7.45734 7.52587 7.75318 7.23631C8.049 6.94643 8.05374 6.47161 7.76392 6.17576C7.20518 5.60571 6.42423 5.24998 5.56177 5.24998ZM6.06372 0.0732195C7.36064 -0.345159 8.40504 1.12018 7.63013 2.16697H2.8274C2.05243 1.12018 3.09687 -0.345164 4.3938 0.0732195L5.01197 0.273415C5.15274 0.318799 5.30479 0.318817 5.44556 0.273415L6.06372 0.0732195Z" fill="black"/>
</svg>
