<svg width="14" height="14" viewBox="0 0 14 14" fill="none" xmlns="http://www.w3.org/2000/svg">
<path d="M9.42787 2.5L8.15289 0.800029C7.98721 0.579116 8.03198 0.265715 8.25289 0.100029C8.47381 -0.065656 8.78721 -0.0208845 8.95289 0.200029L10.6833 2.50719C11.9197 2.59711 12.8864 3.52006 13.1058 4.66667H0C0.21931 3.52005 1.18606 2.59709 2.42253 2.50718L4.15289 0.200029C4.31858 -0.0208844 4.63198 -0.0656559 4.85289 0.100029C5.07381 0.265715 5.11858 0.579116 4.95289 0.80003L3.67791 2.5H9.42787Z" fill="black"/>
<path fill-rule="evenodd" clip-rule="evenodd" d="M0.00160502 5.66667H13.1041C13.0954 5.71212 13.0854 5.75764 13.0742 5.80321L11.7633 11.1365C11.4702 12.3286 10.4013 13.1667 9.17368 13.1667H3.93211C2.70455 13.1667 1.63557 12.3286 1.34254 11.1366L0.0315191 5.80323C0.0203165 5.75765 0.0103533 5.71212 0.00160502 5.66667ZM8.92902 8.16259C9.11086 7.95477 9.0898 7.63889 8.88199 7.45705C8.67417 7.2752 8.35829 7.29626 8.17645 7.50408L6.26317 9.69068C6.20444 9.7578 6.10328 9.76679 6.03363 9.71107L4.86508 8.77623C4.64945 8.60373 4.3348 8.63869 4.1623 8.85432C3.98979 9.06995 4.02476 9.3846 4.24039 9.5571L5.40893 10.4919C5.89646 10.882 6.60462 10.819 7.01575 10.3492L8.92902 8.16259Z" fill="black"/>
</svg>
