<svg width="11" height="14" viewBox="0 0 11 14" fill="none" xmlns="http://www.w3.org/2000/svg">
<path fill-rule="evenodd" clip-rule="evenodd" d="M10 3.33398V10.667C10 12.1398 8.80577 13.334 7.33301 13.334H3.33301C1.86025 13.334 0.666016 12.1398 0.666016 10.667V3.33398H10ZM4 5.5C3.72397 5.5 3.50018 5.72401 3.5 6V10.667C3.5 10.9431 3.72386 11.167 4 11.167C4.27599 11.1668 4.5 10.943 4.5 10.667V6C4.49982 5.72412 4.27588 5.50018 4 5.5ZM6.66602 5.5C6.39013 5.50018 6.16619 5.72412 6.16602 6V10.667C6.16602 10.943 6.39002 11.1668 6.66602 11.167C6.94216 11.167 7.16602 10.9431 7.16602 10.667V6C7.16584 5.72401 6.94205 5.5 6.66602 5.5ZM5.95312 0C6.39877 0.00012064 6.81527 0.222954 7.0625 0.59375L7.66602 1.5H10.166C10.442 1.5 10.6658 1.72401 10.666 2C10.666 2.27614 10.4422 2.5 10.166 2.5H0.5C0.223858 2.5 0 2.27614 0 2C0.000175953 1.72401 0.223966 1.5 0.5 1.5H3L3.60352 0.59375C3.85074 0.222954 4.26725 0.000120699 4.71289 0H5.95312Z" fill="black"/>
</svg>
