<svg width="14" height="10" viewBox="0 0 14 10" fill="none" xmlns="http://www.w3.org/2000/svg">
<path fill-rule="evenodd" clip-rule="evenodd" d="M6.66699 5.33398C8.87613 5.33398 10.667 6.22941 10.667 7.33398C10.6665 8.43834 8.87581 9.33398 6.66699 9.33398C4.45823 9.33395 2.66751 8.43831 2.66699 7.33398C2.66699 6.22944 4.45792 5.33402 6.66699 5.33398ZM2.92188 5.34668C2.14128 5.8759 1.66699 6.57171 1.66699 7.33398C1.66709 7.76598 1.8197 8.17677 2.09375 8.54785C0.86699 8.30183 0 7.70131 0 7C0.000250593 6.14943 1.27559 5.4482 2.92188 5.34668ZM10.4131 5.34668C12.0592 5.44829 13.3337 6.14949 13.334 7C13.334 7.70123 12.4677 8.30177 11.2412 8.54785C11.5152 8.17681 11.6669 7.76593 11.667 7.33398C11.667 6.57185 11.1934 5.87586 10.4131 5.34668ZM3.33398 1.33398C3.4713 1.334 3.60386 1.35401 3.72852 1.39258C3.68821 1.58863 3.667 1.79202 3.66699 2C3.66699 2.62692 3.85964 3.2091 4.18848 3.69043C3.95713 3.88376 3.65904 3.99995 3.33398 4C2.59765 4 2.00008 3.4033 2 2.66699C2 1.93061 2.5976 1.33398 3.33398 1.33398ZM6.66699 0C7.7715 0 8.6669 0.895511 8.66699 2C8.66699 3.10457 7.77156 4 6.66699 4C5.56248 3.99993 4.66699 3.10452 4.66699 2C4.66709 0.895556 5.56254 7.31945e-05 6.66699 0ZM10 1.33398C10.7364 1.33398 11.334 1.93061 11.334 2.66699C11.3339 3.4033 10.7363 4 10 4C9.67504 3.9999 9.37679 3.88371 9.14551 3.69043C9.47434 3.2091 9.66699 2.62692 9.66699 2C9.66698 1.79202 9.64577 1.58863 9.60547 1.39258C9.7301 1.35399 9.8627 1.33403 10 1.33398Z" fill="black"/>
</svg>
